<svg width="150" height="150" viewBox="0 0 150 150" fill="none" xmlns="http://www.w3.org/2000/svg">
<path d="M129.48 34C132.285 34 133.98 32.815 133.98 29.5V14.5C133.98 12.01 131.97 10 129.48 10H82.4702C79.9802 10 77.9702 12.01 77.9702 14.5V29.5C77.9702 31.99 79.9802 34 82.4702 34H129.48Z" fill="#FEDC70"/>
<path d="M129.27 15.7898H98.5953V17.5748H129.27V15.7898Z" fill="#FEFEFE"/>
<path d="M124.32 21.085H98.5953V22.87H124.32V21.085Z" fill="#FEFEFE"/>
<path d="M116.145 26.3652H98.5953V28.1502H116.145V26.3652Z" fill="#FEFEFE"/>
<path d="M88.4698 28.225C91.9198 28.225 94.7248 25.42 94.7248 21.97C94.7248 18.52 91.9198 15.715 88.4698 15.715C85.0198 15.715 82.2148 18.52 82.2148 21.97C82.2298 25.435 85.0198 28.225 88.4698 28.225Z" fill="white"/>
<path d="M123.15 108.97C119.715 108.97 116.43 109.645 113.415 110.815C105.765 96.7597 90.9 87.2197 73.77 87.2197C54.585 87.2197 38.235 99.2197 31.725 116.11C30.27 115.885 28.815 115.705 27.285 115.705C13.35 115.705 1.86 126.055 0 139.48H149.715C149.88 138.265 150 137.05 150 135.79C149.97 120.985 137.955 108.97 123.15 108.97Z" fill="#BFDBFA"/>
<path d="M141.165 74.1702C143.88 74.1702 145.56 73.0152 145.56 69.7752V50.3803C145.56 47.9503 143.595 45.9853 141.165 45.9853H107.37C104.94 45.9853 102.975 47.9503 102.975 50.3803V69.7902C102.975 72.2202 104.94 74.1852 107.37 74.1852C107.37 74.1702 139.05 74.1702 141.165 74.1702Z" fill="#F49890"/>
<path d="M139.155 64.3602H109.35V66.1152H139.155V64.3602Z" fill="white"/>
<path d="M134.325 59.2304H109.35V60.9854H134.325V59.2304Z" fill="white"/>
<path d="M126.405 54.0851H109.35V55.8401H126.405V54.0851Z" fill="white"/>
<path d="M135.33 72.7597C136.485 76.4347 139.2 77.9797 144.255 77.9797V77.8897C142.2 76.0597 141.615 73.6597 141.615 72.7147" fill="#F49890"/>
<path d="M86.7151 98.41L81.0602 104.065L108.825 131.83L114.48 126.175L86.7151 98.41Z" fill="#A768BC"/>
<path opacity="0.4" d="M64.9947 108.91C79.9497 108.91 92.0698 96.775 92.0698 81.8351C92.0698 66.8951 79.9497 54.7451 64.9947 54.7451C50.0397 54.7451 37.9047 66.8801 37.9047 81.8201C37.9047 96.76 50.0397 108.91 64.9947 108.91Z" fill="white"/>
<path d="M86.4601 103.825C74.4751 115.81 54.9601 115.81 42.9751 103.825C30.9901 91.8402 30.9901 72.3252 42.9751 60.3402C54.9601 48.3553 74.4751 48.3553 86.4601 60.3402C98.4451 72.3252 98.4451 91.8402 86.4601 103.825ZM47.2501 64.6152C37.6051 74.2602 37.6051 89.9202 47.2501 99.5501C56.8951 109.18 72.5551 109.195 82.1851 99.5501C91.8151 89.9052 91.8301 74.2452 82.1851 64.6152C72.5401 54.9852 56.8801 54.9702 47.2501 64.6152Z" fill="#BE8ECE"/>
<path d="M96.8702 105.505L88.1252 114.25L107.25 133.375L115.995 124.63L96.8702 105.505Z" fill="#9747B2"/>
<path d="M24.54 29.9952H4.97997V61.3451H28.6499V34.0902L24.54 29.9952Z" fill="#F2A653"/>
<path d="M28.65 34.0902H24.555V29.9952L28.65 34.0902Z" fill="#FFCA61"/>
<path d="M14.97 49.3452V49.2252C14.97 48.4003 15.0749 47.7403 15.2099 47.2603C15.3749 46.7803 15.585 46.3753 15.885 46.0603C16.17 45.7453 16.53 45.4753 16.95 45.2353C17.205 45.0703 17.4449 44.8753 17.6699 44.6503C17.8949 44.4253 18.045 44.1853 18.165 43.9303C18.285 43.6753 18.3599 43.3453 18.3599 43.0153C18.3599 42.6403 18.255 42.2803 18.075 41.9803C17.88 41.6953 17.64 41.4853 17.34 41.3053C17.04 41.1253 16.6949 41.0653 16.3049 41.0653C15.9599 41.0653 15.6299 41.1403 15.3299 41.2903C15.0149 41.4253 14.745 41.6503 14.565 41.9653C14.37 42.2803 14.2499 42.6703 14.2049 43.1203H12.1499C12.1649 42.3253 12.39 41.6353 12.75 41.0803C13.125 40.5253 13.6049 40.1053 14.2349 39.8353C14.8499 39.5503 15.5399 39.4003 16.2749 39.4003C17.0999 39.4003 17.805 39.5353 18.435 39.8653C19.05 40.1803 19.515 40.5853 19.875 41.1403C20.22 41.6953 20.3699 42.3253 20.3699 43.0303C20.3699 43.5253 20.295 43.9753 20.13 44.3653C19.965 44.7703 19.7549 45.1003 19.4549 45.4303C19.1699 45.7453 18.8399 46.0153 18.4199 46.2553C18.0449 46.4953 17.715 46.7353 17.505 46.9903C17.265 47.2453 17.1 47.5453 17.01 47.9053C16.905 48.2503 16.845 48.6703 16.845 49.2102V49.3302H14.94L14.97 49.3452ZM15.9899 53.4102C15.6299 53.4102 15.3149 53.2902 15.0449 53.0352C14.7899 52.7802 14.6699 52.4502 14.6699 52.0902C14.6699 51.7302 14.7899 51.4152 15.0449 51.1452C15.2999 50.8902 15.6299 50.7702 15.9899 50.7702C16.3499 50.7702 16.665 50.8902 16.935 51.1452C17.19 51.4002 17.34 51.7302 17.34 52.0902C17.34 52.3302 17.2649 52.5702 17.1449 52.7652C17.0249 52.9602 16.86 53.1252 16.665 53.2452C16.47 53.3652 16.2299 53.4402 15.9899 53.4402V53.4102Z" fill="white"/>
</svg>
